<?xml version="1.0" encoding="UTF-8"?>
<svg id="Layer_2" data-name="Layer 2" xmlns="http://www.w3.org/2000/svg" viewBox="0 0 1368 772.8">
  <defs>
    <style>
      .cls-1 {
        fill: #5bc0eb;
      }

      .cls-2 {
        fill: #fde74c;
      }

      .cls-3 {
        fill: #08415c;
      }

      .cls-4 {
        fill: #fa7921;
      }

      .cls-5 {
        fill: #e55934;
      }
    </style>
  </defs>
  <g id="Layer_1-2" data-name="Layer 1">
    <g>
      <path class="cls-4" d="M599.68,687.16l-295.89-153.67c-116.37,18.73-219.5,22.09-302.79,19.55-.33-.01-.67-.02-1-.03v219.79h588.91c-.04-.33-.07-.67-.11-1-3.04-28.2,1.85-57.13,10.87-84.64Z"/>
      <path class="cls-1" d="M1044,310.8c-6.67,3-13.33,6-20,9-3.47-14.29-7.19-31.64-10.42-51.59-1.97-12.19-3.76-25.36-5.19-39.39-24.5,19.55-50.29,38.82-77.41,57.62-26.38,18.29-54.02,36.14-82.97,53.37-1.17.69-2.43,1.44-3.74,2.22l46.01,68.48c9.61-2.57,19.51-4.83,29.74-6.7,166.29-30.38,359.69,50.14,448,166.91V178.16c-20.91,8.56-41.82,17.12-62.73,25.68l-261.27,106.95Z"/>
      <path class="cls-5" d="M920,403.8c-10.22,1.87-20.13,4.12-29.74,6.7l119.13,177.3,123.63,184,.67,1h234.31v-202.09c-88.31-116.77-281.71-197.29-448-166.91Z"/>
      <path class="cls-1" d="M706,742.37l-106.32-55.22c-9.02,27.51-13.92,56.44-10.87,84.64.04.33.07.67.11,1h175.66l-1.93-1-56.65-29.42Z"/>
      <path class="cls-2" d="M784,252.33l32.02,47.66,6.9,10.28,1.16,1.72,20.17,30.02c1.32-.78,2.58-1.52,3.74-2.22,28.95-17.23,56.59-35.08,82.97-53.37,27.12-18.8,52.91-38.07,77.41-57.62-.98-9.61-1.8-19.62-2.39-30.01-.76-13.42-1.56-27.51-2.18-42-2.09-49.23-2.07-103.28,8.67-153h-136.86l-158.15,149.54,66.52,99Z"/>
      <path class="cls-1" d="M303.79,533.48l-2.29-1.19,97.15-88.5,318.84-290.46L617.01,3.8h-129.86L1,373.12l-1,.76v179.12c.33.01.67.02,1,.03,83.29,2.54,186.42-.82,302.79-19.55Z"/>
      <path class="cls-5" d="M632.7,443.8c-61.36,23.93-133.56,47.77-214.7,67-39.25,9.3-77.39,16.76-114.21,22.69l295.89,153.67c23.96-73.1,77-136.11,87.32-148.36,2.8-3.32,9.19-10.77,19-20.58,16.54-16.55,42.8-39.84,78-61.55,29.36-18.11,64.94-35.11,106.26-46.17l-46.01-68.48c-13.01,7.68-33.33,19.37-60.26,33.38-37.96,19.75-89.06,44.12-151.3,68.4Z"/>
      <path class="cls-2" d="M1009.39,587.8l-119.13-177.3c-41.33,11.06-76.9,28.06-106.26,46.17-35.2,21.71-61.46,45.01-78,61.55-9.81,9.81-16.2,17.26-19,20.58-10.32,12.25-63.36,75.26-87.32,148.36l106.32,55.22,56.65,29.42,1.93,1h369.12l-.67-1-123.63-184Z"/>
      <polygon class="cls-5" points="875.64 3.8 872.47 3.8 617.01 3.8 717.48 153.33 875.64 3.8"/>
      <path class="cls-4" d="M822.93,310.27l-6.9-10.28-32.02-47.66-66.52-99-318.84,290.46-97.15,88.5,2.29,1.19c36.82-5.93,74.96-13.39,114.21-22.69,81.14-19.23,153.34-43.07,214.7-67,62.24-24.27,113.34-48.64,151.3-68.4,26.92-14.01,47.25-25.7,60.26-33.38l-20.17-30.02-1.16-1.72Z"/>
      <polygon class="cls-5" points="487.15 3.8 1 3.8 0 3.8 0 373.88 1 373.12 487.15 3.8"/>
      <path class="cls-4" d="M1234.8,3.8c-39.96,49.23-87.3,101.3-142.88,153-26.01,24.2-53.83,48.31-83.54,72.01,1.43,14.04,3.22,27.2,5.19,39.39,3.23,19.95,6.95,37.3,10.42,51.59,6.67-3,13.33-6,20-9l261.27-106.95c20.91-8.56,41.82-17.12,62.73-25.68V3.8h-133.2Z"/>
      <path class="cls-5" d="M1003.82,156.8c.62,14.49,1.41,28.58,2.18,42,.59,10.39,1.41,20.4,2.39,30.01,29.71-23.7,57.52-47.82,83.54-72.01,55.57-51.7,102.91-103.77,142.88-153h-222.31c-10.74,49.72-10.77,103.77-8.67,153Z"/>
      <path class="cls-3" d="M879.65,0l-4.01,3.8h.87c1.03-1.25,2.07-2.51,3.15-3.8Z"/>
    </g>
  </g>
</svg>