<?xml version="1.0" encoding="UTF-8" standalone="no"?>
<svg
   width="2192"
   height="3407"
   viewBox="0 0 2192 3407"
   fill="none"
   version="1.1"
   id="svg8"
   xmlns="http://www.w3.org/2000/svg"
   xmlns:svg="http://www.w3.org/2000/svg">
  <defs
     id="defs8" />
  <path
     d="m 911.725,2997.1 -42.004,-462.73 443.809,222.54 z"
     fill="#ffffff"
     id="path1" />
  <path
     d="m 1487.56,3297.67 359.94,-221.58 -258.09,-354.8 -359.93,221.57 z"
     fill="#ffffff"
     id="path2" />
  <path
     d="m 1023.54,2163.57 c -46.214,103.18 7.46,227.63 119.88,277.96 112.42,50.34 241.02,7.5 287.24,-95.68 46.22,-103.18 -7.45,-227.63 -119.87,-277.96 -112.43,-50.34 -241.03,-7.5 -287.25,95.68 z"
     fill="#ffffff"
     id="path3" />
  <path
     d="m 2071.28,2647.5 -241.86,-31.89 -92.22,205.89 -57.24,-225.6 -241.86,-31.9 206.47,-107.55 -57.24,-225.6 184.86,159.16 206.45,-107.54 -92.22,205.9 z"
     fill="#ffffff"
     id="path4" />
  <path
     d="M 1059.74,1379.7 588.316,1339.06 881.891,938.526 Z"
     fill="#ffffff"
     id="path5" />
  <path
     d="M 1452.53,862.118 1286.76,465.783 889.641,658.616 1055.41,1054.95 Z"
     fill="#ffffff"
     id="path6" />
  <path
     d="m 240.129,1120.58 c 96.347,64.18 229.822,33.09 298.125,-69.44 68.302,-102.535 45.566,-237.684 -50.781,-301.866 -96.347,-64.182 -229.822,-33.092 -298.125,69.44 -68.302,102.533 -45.566,237.686 50.781,301.866 z"
     fill="#ffffff"
     id="path7" />
  <path
     d="M 891.573,167.642 821.364,401.812 1013.62,529.886 777.984,546.522 707.776,780.691 632.322,556.82 396.681,573.456 585.724,418.447 510.289,194.589 702.549,322.663 Z"
     fill="#ffffff"
     id="path8" />
</svg>
