<?xml version="1.0" encoding="UTF-8"?>
<svg id="Layer_2" data-name="Layer 2" xmlns="http://www.w3.org/2000/svg" viewBox="0 0 799.08 456.25">
  <defs>
    <style>
      .cls-1 {
        fill: #5bc0eb;
      }

      .cls-2 {
        fill: #fde74c;
      }

      .cls-3 {
        fill: #fa7921;
      }

      .cls-4 {
        fill: #e55934;
      }
    </style>
  </defs>
  <g id="Layer_1-2" data-name="Layer 1">
    <g>
      <path class="cls-4" d="M363.01,186.72c-4.27,7.18-6.4,15.23-6.4,24.15s2.13,17.23,6.4,24.53c4.27,7.31,10.02,13.09,17.26,17.36,7.24,4.27,15.32,6.4,24.24,6.4s17.23-2.13,24.53-6.4c7.31-4.27,13.09-10.05,17.36-17.36,4.27-7.3,6.4-15.48,6.4-24.53s-2.13-17-6.4-24.24c-4.27-7.24-10.05-12.96-17.36-17.17-7.31-4.2-15.49-6.3-24.53-6.3s-17,2.13-24.24,6.4c-7.24,4.27-13,9.99-17.26,17.17ZM389.19,184.01c4.52-2.65,9.63-3.98,15.32-3.98s11.15,1.33,15.61,3.98c4.46,2.65,8.02,6.3,10.67,10.96,2.65,4.65,3.98,9.96,3.98,15.9s-1.29,11.48-3.88,16.19c-2.59,4.72-6.14,8.44-10.67,11.15-4.53,2.71-9.76,4.07-15.71,4.07s-10.8-1.36-15.32-4.07c-4.53-2.72-8.08-6.43-10.67-11.15-2.59-4.72-3.88-10.12-3.88-16.19s1.29-11.25,3.88-15.9c2.59-4.66,6.14-8.31,10.67-10.96Z"/>
      <path class="cls-3" d="M489.66,256.95h.3v-53.73c0-4.3.83-8.14,2.48-11.51.09-.17.17-.33.26-.5.04-.07.08-.15.12-.22,2.06-3.58,4.89-6.39,8.48-8.44,3.62-2.07,7.76-3.1,12.41-3.1,6.98,0,12.64,2.26,16.97,6.79.52.54,1,1.1,1.46,1.68,3.22,4.19,4.83,9.29,4.83,15.31v53.73h.21v.28h17.65v-57.22c0-6.33-1.55-12.31-4.65-17.94-.82-1.49-1.73-2.9-2.71-4.24-2.76-3.84-6.16-7.08-10.2-9.71-3.48-2.26-7.3-3.78-11.46-4.58,0,0,.01-.02.02-.03-.57-.09-1.16-.18-1.76-.27-.11-.02-.23-.04-.34-.05-3.15-.47-6.65-.91-10.55-.89-3.29.02-6.38.44-9.15.81-5.3.57-10.09,2.22-14.36,5-4.08,2.66-7.51,5.93-10.28,9.83-1.68,2.24-3.14,4.82-4.31,7.79-1.41,3.41-2.27,6.95-2.6,10.61-.11.9-.2,1.81-.27,2.76v58.12h17.46v-.28Z"/>
      <path class="cls-1" d="M596.24,252.86c7.3,4.2,15.61,6.3,24.92,6.3,7.24,0,14.03-1.36,20.36-4.07,6.33-2.71,11.77-6.66,16.29-11.83l-11.25-11.44c-3.1,3.62-6.82,6.34-11.15,8.15-4.33,1.81-9.09,2.71-14.25,2.71-6.21,0-11.7-1.32-16.49-3.98-4.79-2.65-8.47-6.4-11.06-11.25-1.58-2.95-2.61-6.24-3.23-9.8h72.08c.39-1.81.65-3.46.78-4.95.13-1.49.19-2.88.19-4.17,0-8.79-1.84-16.61-5.53-23.47-3.68-6.85-8.83-12.22-15.42-16.1-6.59-3.88-14.09-5.82-22.5-5.82-8.92,0-16.97,2.1-24.15,6.3-7.18,4.2-12.87,9.93-17.07,17.17-4.2,7.24-6.3,15.39-6.3,24.44s2.13,17.39,6.4,24.63c4.27,7.24,10.05,12.97,17.36,17.17ZM593.43,194c2.45-4.65,5.95-8.27,10.47-10.86,4.53-2.59,9.76-3.88,15.71-3.88s10.54,1.2,14.55,3.59c4.01,2.39,7.11,5.75,9.31,10.08,1.5,2.95,2.44,6.37,2.92,10.18h-55.97c.6-3.32,1.56-6.38,3.01-9.12Z"/>
      <path class="cls-2" d="M429.05,331.09c-7.31-4.2-15.49-6.3-24.53-6.3s-17,2.13-24.24,6.4c-7.24,4.27-13,9.99-17.26,17.17-4.27,7.18-6.4,15.23-6.4,24.15s2.13,17.23,6.4,24.53c4.27,7.31,10.02,13.09,17.26,17.36,7.24,4.27,15.32,6.4,24.24,6.4s17.23-2.13,24.53-6.4c7.31-4.27,13.09-10.05,17.36-17.36,4.27-7.3,6.4-15.48,6.4-24.53s-2.13-17-6.4-24.24c-4.27-7.24-10.05-12.96-17.36-17.17ZM430.89,388.7c-2.59,4.72-6.14,8.44-10.67,11.15-4.53,2.71-9.76,4.07-15.71,4.07s-10.8-1.36-15.32-4.07c-4.53-2.72-8.08-6.43-10.67-11.15-2.59-4.72-3.88-10.12-3.88-16.19s1.29-11.25,3.88-15.9c2.59-4.66,6.14-8.31,10.67-10.96,4.52-2.65,9.63-3.98,15.32-3.98s11.15,1.33,15.61,3.98c4.46,2.65,8.02,6.3,10.67,10.96,2.65,4.65,3.98,9.96,3.98,15.9s-1.29,11.48-3.88,16.19Z"/>
      <polygon class="cls-1" points="514.1 418.86 556.38 326.73 537.76 326.73 509.27 391.65 480.93 326.73 461.54 326.73 503.82 418.86 514.1 418.86"/>
      <path class="cls-3" d="M589.06,414.49c7.3,4.2,15.61,6.3,24.92,6.3,7.24,0,14.03-1.36,20.36-4.07,6.33-2.71,11.77-6.66,16.29-11.83l-11.25-11.44c-3.1,3.62-6.82,6.34-11.15,8.15-4.33,1.81-9.09,2.71-14.25,2.71-6.21,0-11.7-1.32-16.49-3.98-4.79-2.65-8.47-6.4-11.06-11.25-1.58-2.95-2.61-6.24-3.23-9.8h72.08c.39-1.81.65-3.46.78-4.95.13-1.49.19-2.88.19-4.17,0-8.79-1.84-16.61-5.53-23.47-3.68-6.85-8.83-12.22-15.42-16.1-6.59-3.88-14.09-5.82-22.5-5.82-8.92,0-16.97,2.1-24.15,6.3-7.18,4.2-12.87,9.93-17.07,17.17-4.2,7.24-6.3,15.39-6.3,24.44s2.13,17.39,6.4,24.63c4.27,7.24,10.05,12.97,17.36,17.17ZM586.25,355.63c2.45-4.65,5.95-8.27,10.47-10.86,4.53-2.59,9.76-3.88,15.71-3.88s10.54,1.2,14.55,3.59c4.01,2.39,7.11,5.75,9.31,10.08,1.5,2.95,2.44,6.37,2.92,10.18h-55.97c.6-3.32,1.56-6.38,3.01-9.12Z"/>
      <path class="cls-2" d="M699.58,253.07c3.48,2.26,7.3,3.78,11.46,4.58,0,0-.01.02-.02.03.57.09,1.17.18,1.77.27.11.02.22.03.34.05,3.15.47,6.65.91,10.55.89,3.29-.02,6.38-.44,9.15-.81,5.18-.55,9.87-2.16,14.07-4.83v5.44c0,6.98-2.17,12.73-6.5,17.26-4.22,4.41-9.71,6.65-16.45,6.77h-28.43v-.03h-75.49v-15.43l-37.04,21.39,37.04,21.39v-10.83h75.49v-.17h33.15c.14.01.28,0,.42,0h.06c6.78-.08,12.8-1.81,18.04-5.22,5.37-3.49,9.6-8.05,12.7-13.67,3.1-5.63,4.65-11.61,4.65-17.94v-97.93h-17.65v53.73c0,6.98-2.17,12.73-6.5,17.26-4.33,4.53-9.99,6.79-16.97,6.79v.02s-.08,0-.08,0v-.02c-6.98,0-12.63-2.26-16.97-6.79-4.33-4.53-6.5-10.28-6.5-17.26v-53.73h-17.65v57.22c0,6.33,1.55,12.31,4.65,17.94,3.1,5.63,7.34,10.18,12.71,13.67Z"/>
      <path class="cls-4" d="M720.68,382.13h-5.78c-32.33,0-30.61-6.95-30.61-15.5h-.02s0-.08,0-.08h.02c0-6.98,2.26-12.63,6.79-16.97,4.53-4.33,10.28-6.5,17.26-6.5h53.7v10.88l37.04-21.39-37.04-21.39v14.25h-57.19c-6.33,0-12.31,1.55-17.94,4.65-5.63,3.1-10.18,7.34-13.67,12.7-2.27,3.48-3.72,7.34-4.51,11.51-.03-.02-.06-.05-.09-.07-.09.61-.19,1.25-.28,1.88,0,.07-.02.13-.03.2-.47,3.16-.91,6.66-.89,10.57.02,3.47.48,6.73.87,9.6.61,5.11,4.65,23.19,51.7,23.19h7.33c20.94,0,21.12,8.5,21.12,13.99h.02s0,.08,0,.08h-.02c0,6.98-2.26,12.63-6.79,16.97-4.53,4.33-10.28,6.5-17.26,6.5h-50.41v-.02h-270.64v-.05h-31.36c-20.4,0-36.89-15.96-37.98-36.08v-132.45h-12.66l-.1-.09-.97,1.06-1.82,1.91v.09l-60.78,66.69-37.8-62.92.06-.09-4.05-6.66h-.06v-.02s-.05.02-.05.02h-12.69v.02h-.01s-94.68,135.21-94.68,135.21h.02l-11.49,16.41h21.45l15.12-21.59h-.01s69.61-99.43,69.61-99.43v.09l6.74-9.62,37.77,62.87h18.68v.02s.03-.02.03-.02l52.15-57.23v3.28l-2.69,104.57h0v.02h0c0,30.84,25.38,51.48,56.22,51.48h2.06v.07h296.62v.1h57.22c18.73,0,31.46-11.72,36.5-30.67.02-.07.02-.13.03-.2.47-3.16.89-6.66.89-10.57,0-7-1.56-31.28-44.62-31.28Z"/>
      <polygon class="cls-1" points="178.95 231.37 178.91 231.34 218.05 175.44 243.41 211.66 249.38 211.66 250.82 211.66 255.84 211.66 297.09 152.74 314.67 127.65 314.67 127.61 319.09 121.29 319.09 121.32 319.09 253.74 336.67 253.74 336.67 96.23 336.67 96.19 379.58 34.9 391.07 42.67 394.1 0 355.63 18.7 365.02 25.05 294.88 125.23 294.9 125.24 249.63 189.89 228.78 160.12 223.75 152.94 212.36 152.94 207.33 160.12 36.26 404.42 36.29 404.42 25.21 420.25 0 456.25 21.45 456.25 46.66 420.25 57.74 404.42 57.78 404.42 178.95 231.37"/>
    </g>
  </g>
</svg>