<?xml version="1.0" encoding="UTF-8"?>
<svg id="Layer_2" data-name="Layer 2" xmlns="http://www.w3.org/2000/svg" viewBox="0 0 1440 4">
  <defs>
    <style>
      .cls-1 {
        fill: #fff;
      }

      .cls-2 {
        fill: #fa7921;
      }

      .cls-3 {
        fill: #fde74c;
      }

      .cls-4 {
        fill: #5bc0eb;
      }

      .cls-5 {
        fill: #e55934;
      }
    </style>
  </defs>
  <g id="Layer_1-2" data-name="Layer 1">
    <g>
      <rect class="cls-1" x="966.91" y="-9.7" width="0" height="23.4" transform="translate(799.66 954.34) rotate(-80.16)"/>
      <path class="cls-1" d="M1332.73,4h0c-13.91-1.03-28.44-2-43.46-2.9,15.02.9,29.54,1.87,43.45,2.9Z"/>
      <path class="cls-1" d="M645.7,0c-30.21,1.36-62.79,2.71-97.56,4h.03c34.76-1.29,67.34-2.64,97.55-4h-.02Z"/>
      <path class="cls-4" d="M1289.27,1.1c15.02.9,29.54,1.87,43.46,2.9h107.27V0h-170.07c6.53.35,12.99.72,19.35,1.1Z"/>
      <path class="cls-5" d="M1269.92,0h-314.54l23.06,4h354.28c-13.91-1.03-28.43-2-43.45-2.9-6.36-.38-12.82-.75-19.35-1.1Z"/>
      <path class="cls-5" d="M1269.93,0h0c6.53.35,12.99.72,19.35,1.1-6.36-.38-12.82-.75-19.35-1.1Z"/>
      <polygon class="cls-4" points="397.46 0 0 0 0 4 359.79 4 397.46 0"/>
      <path class="cls-5" d="M815.17,0h-83.99v4h50.15c10.25-.89,21.53-1.8,33.83-2.68V0Z"/>
      <path class="cls-5" d="M645.72,0c-30.21,1.36-62.79,2.71-97.55,4h183.02V0h-85.46Z"/>
      <path class="cls-5" d="M815.17,1.32h0c6.22-.45,12.7-.89,19.43-1.32h-19.43v1.32h0Z"/>
      <path class="cls-3" d="M815.17,1.32h0c-12.3.88-23.58,1.79-33.83,2.68h33.83V1.32h0Z"/>
      <path class="cls-3" d="M815.17,1.32c-12.3.88-23.59,1.79-33.83,2.68h0c10.24-.89,21.52-1.8,33.83-2.68h0Z"/>
      <path class="cls-3" d="M834.61,0c-6.73.43-13.22.87-19.44,1.32v2.68h163.26l-23.06-4h-120.77Z"/>
      <path class="cls-3" d="M815.17,1.32c6.22-.45,12.71-.89,19.44-1.32h0c-6.73.43-13.22.87-19.43,1.32h0Z"/>
      <path class="cls-2" d="M397.46,0l-37.67,4h188.36c34.76-1.29,67.35-2.64,97.56-4h-248.25Z"/>
    </g>
  </g>
</svg>